# xmcd
#
# Track frame offsets:
#	150
#	10772
#	18547
#	23947
#	38275
#	62787
#	68387
#	88962
#	97877
#	104577
#	120405
#	126665
#	164187
#	198380
#	201752
#	209832
#	220717
#	231305
#	235190
#	241815
#	244075
#	260152
#
# Disc length: 3572 seconds
#
# Revision: 0
# Processed by: cddbd v1.5.2PL0 Copyright (c) Steve Scherf et al.
# Submitted via: dBpowerAMP V4.0
#
DISCID=3e0df216
DTITLE=Swell Maps - A Trip to Marineville
DYEAR=1979
DGENRE=
TTITLE0=H.S.art
TTITLE1=Another Song
TTITLE2=Vertical Slum
TTITLE3=Spitfire Parade
TTITLE4=Harmony in your Bathroom
TTITLE5=Don't Throw Ashtrays at me!
TTITLE6=Midget Submarines
TTITLE7=Bridge Head (pt. 9)
TTITLE8=Full Moon in my Pocket
TTITLE9=BLAM!!
TTITLE10=Full Moon (Reprise)
TTITLE11=Gunboats
TTITLE12=Adventuring into Basketry
TTITLE13=My Little Shops
TTITLE14=Ripped and Torn
TTITLE15=International Rescue
TTITLE16=Loin of the Surf
TTITLE17=Shoot the Angels
TTITLE18=Elephant Flowers (no. 2)
TTITLE19=Turn me on Dead Man
TTITLE20=Bronze and Baby Shoes
TTITLE21=nevertoseeanyotherway
EXTD=
EXTT0=
EXTT1=
EXTT2=
EXTT3=
EXTT4=
EXTT5=
EXTT6=
EXTT7=
EXTT8=
EXTT9=
EXTT10=
EXTT11=
EXTT12=
EXTT13=
EXTT14=
EXTT15=
EXTT16=
EXTT17=
EXTT18=
EXTT19=
EXTT20=
EXTT21=
PLAYORDER=
